<?xml version="1.0"?>
<svg xmlns="http://www.w3.org/2000/svg" viewBox="0 0 50 50">
    <path d="M 25.0625 2 C 24.7525 1.981 24.42175 2.122 24.21875 2.375 L 20.71875 6.75 L 19.4375 6.09375 C 18.9675 5.86175 18.42625 6.054 18.15625 6.5 L 11.96875 16.78125 C 11.519635 16.904487 11.122293 17 11 17 C 10.81107 17 10.058078 16.812233 9.3125 16.5625 C 8.5669221 16.312767 7.833668 16 7 16 C 6.166332 16 5.4384092 16.312405 4.6875 16.5625 C 3.9365908 16.812595 3.1608169 17 3 17 A 1.0001 1.0001 0 1 0 3 19 C 3.8321831 19 4.5621592 18.687405 5.3125 18.4375 C 6.0628408 18.187595 6.831668 18 7 18 C 7.168332 18 7.9403279 18.187233 8.6875 18.4375 C 9.4346721 18.687767 10.16193 19 11 19 C 11.83807 19 12.590014 18.688202 13.34375 18.4375 C 14.097486 18.186798 14.867222 18 15 18 C 15.132778 18 15.900093 18.187075 16.65625 18.4375 C 17.412407 18.687925 18.1665 19 19 19 C 19.8335 19 20.56181 18.687563 21.3125 18.4375 C 22.06319 18.187437 22.837508 18 23 18 C 23.162492 18 23.934377 18.187708 24.6875 18.4375 C 25.440623 18.687292 26.17062 19 27 19 C 27.82938 19 28.552818 18.687725 29.3125 18.4375 C 30.072182 18.187275 30.873273 18 31 18 C 31.126727 18 31.925279 18.18755 32.6875 18.4375 C 33.449721 18.68745 34.174383 19 35 19 C 35.825617 19 36.550902 18.687409 37.3125 18.4375 C 38.074098 18.187591 38.869811 18 39 18 C 39.130189 18 39.924864 18.187701 40.6875 18.4375 C 41.450136 18.687299 42.175755 19 43 19 C 43.824245 19 44.550487 18.687258 45.3125 18.4375 C 46.074513 18.187742 46.866361 18 47 18 A 1.0001 1.0001 0 1 0 47 16 C 46.172639 16 45.450987 16.312258 44.6875 16.5625 C 43.924013 16.812742 43.112755 17 43 17 C 42.887245 17 42.076364 16.812701 41.3125 16.5625 C 40.548636 16.312299 39.826811 16 39 16 C 38.739017 16 38.494866 16.043281 38.25 16.09375 L 34.90625 8.59375 C 34.79525 8.34475 34.60075 8.1555 34.34375 8.0625 C 34.08775 7.9715 33.8075 7.97075 33.5625 8.09375 L 30.375 9.6875 L 25.84375 2.46875 C 25.67175 2.19475 25.3865 2.019 25.0625 2 z M 24.90625 4.71875 L 29.15625 11.53125 C 29.42925 11.96725 29.9745 12.13625 30.4375 11.90625 L 33.5 10.375 L 36.3125 16.65625 C 35.685532 16.843214 35.101601 17 35 17 C 34.877617 17 34.075029 16.81255 33.3125 16.5625 C 32.549971 16.31245 31.826273 16 31 16 C 30.173727 16 29.445818 16.312725 28.6875 16.5625 C 27.929182 16.812275 27.14562 17 27 17 C 26.85438 17 26.066877 16.812708 25.3125 16.5625 C 24.558123 16.312292 23.832508 16 23 16 C 22.167492 16 21.43781 16.312563 20.6875 16.5625 C 19.93719 16.812437 19.1675 17 19 17 C 18.8325 17 18.066093 16.812075 17.3125 16.5625 C 16.558907 16.312925 15.827222 16 15 16 C 14.912745 16 14.834721 16.024723 14.75 16.03125 L 19.375 8.3125 L 20.5625 8.90625 C 20.9845 9.11825 21.48625 8.994 21.78125 8.625 L 24.90625 4.71875 z M 39 20 C 38.784 20 38.34525 20.113 37.90625 20.25 L 40.875 26.90625 L 30.75 42.5625 L 27.59375 40.1875 C 27.16875 39.8665 26.55975 39.93575 26.21875 40.34375 L 22.03125 45.375 L 8.1875 26.9375 L 11.84375 20.875 C 11.55175 20.938 11.258 21 11 21 C 10.575 21 10.09975 20.899 9.59375 20.75 L 6.15625 26.5 C 5.94825 26.848 5.9435 27.26775 6.1875 27.59375 L 21.1875 47.59375 C 21.3715 47.83875 21.66375 47.993 21.96875 48 L 22 48 C 22.296 48 22.59025 47.88325 22.78125 47.65625 L 27.15625 42.375 L 30.40625 44.8125 C 30.62825 44.9795 30.9145 45.049 31.1875 45 C 31.4595 44.951 31.69375 44.76425 31.84375 44.53125 L 42.84375 27.53125 C 43.02775 27.24825 43.04325 26.90175 42.90625 26.59375 L 40.09375 20.25 C 39.65175 20.112 39.218 20 39 20 z"/>
</svg>
